<mxfile host="app.diagrams.net" modified="2024-05-18T07:13:20.330Z" agent="Mozilla/5.0 (Windows NT 10.0; Win64; x64) AppleWebKit/537.36 (KHTML, like Gecko) Chrome/122.0.0.0 Safari/537.36 Edg/122.0.0.0" etag="FJhp8kBCVeqWVbBNJaBC" version="24.4.4" type="device">
  <diagram name="第 1 页" id="kWJbIQCarjkSy7zJdlzj">
    <mxGraphModel dx="960" dy="647" grid="1" gridSize="10" guides="1" tooltips="1" connect="1" arrows="1" fold="1" page="1" pageScale="1" pageWidth="827" pageHeight="1169" math="0" shadow="0">
      <root>
        <mxCell id="0" />
        <mxCell id="1" parent="0" />
        <mxCell id="5PEL2_fFzi-qIXHavfcE-3" value="" style="edgeStyle=orthogonalEdgeStyle;rounded=0;orthogonalLoop=1;jettySize=auto;html=1;" edge="1" parent="1" source="5PEL2_fFzi-qIXHavfcE-1" target="5PEL2_fFzi-qIXHavfcE-2">
          <mxGeometry relative="1" as="geometry" />
        </mxCell>
        <mxCell id="5PEL2_fFzi-qIXHavfcE-1" value="初始化" style="strokeWidth=2;html=1;shape=mxgraph.flowchart.start_1;whiteSpace=wrap;" vertex="1" parent="1">
          <mxGeometry x="190" y="90" width="100" height="60" as="geometry" />
        </mxCell>
        <mxCell id="5PEL2_fFzi-qIXHavfcE-5" value="" style="edgeStyle=orthogonalEdgeStyle;rounded=0;orthogonalLoop=1;jettySize=auto;html=1;" edge="1" parent="1" source="5PEL2_fFzi-qIXHavfcE-2" target="5PEL2_fFzi-qIXHavfcE-4">
          <mxGeometry relative="1" as="geometry" />
        </mxCell>
        <mxCell id="5PEL2_fFzi-qIXHavfcE-2" value="显示数据" style="whiteSpace=wrap;html=1;strokeWidth=2;" vertex="1" parent="1">
          <mxGeometry x="180" y="190" width="120" height="60" as="geometry" />
        </mxCell>
        <mxCell id="5PEL2_fFzi-qIXHavfcE-7" value="" style="edgeStyle=orthogonalEdgeStyle;rounded=0;orthogonalLoop=1;jettySize=auto;html=1;" edge="1" parent="1" source="5PEL2_fFzi-qIXHavfcE-4" target="5PEL2_fFzi-qIXHavfcE-6">
          <mxGeometry relative="1" as="geometry" />
        </mxCell>
        <mxCell id="5PEL2_fFzi-qIXHavfcE-8" value="false" style="edgeLabel;html=1;align=center;verticalAlign=middle;resizable=0;points=[];" vertex="1" connectable="0" parent="5PEL2_fFzi-qIXHavfcE-7">
          <mxGeometry x="-0.0909" y="3" relative="1" as="geometry">
            <mxPoint as="offset" />
          </mxGeometry>
        </mxCell>
        <mxCell id="5PEL2_fFzi-qIXHavfcE-10" value="" style="edgeStyle=orthogonalEdgeStyle;rounded=0;orthogonalLoop=1;jettySize=auto;html=1;" edge="1" parent="1" source="5PEL2_fFzi-qIXHavfcE-4" target="5PEL2_fFzi-qIXHavfcE-9">
          <mxGeometry relative="1" as="geometry" />
        </mxCell>
        <mxCell id="5PEL2_fFzi-qIXHavfcE-17" value="true" style="edgeLabel;html=1;align=center;verticalAlign=middle;resizable=0;points=[];" vertex="1" connectable="0" parent="5PEL2_fFzi-qIXHavfcE-10">
          <mxGeometry x="0.24" y="2" relative="1" as="geometry">
            <mxPoint as="offset" />
          </mxGeometry>
        </mxCell>
        <mxCell id="5PEL2_fFzi-qIXHavfcE-4" value="安全性检查" style="rhombus;whiteSpace=wrap;html=1;strokeWidth=2;" vertex="1" parent="1">
          <mxGeometry x="165" y="280" width="150" height="80" as="geometry" />
        </mxCell>
        <mxCell id="5PEL2_fFzi-qIXHavfcE-6" value="不安全" style="whiteSpace=wrap;html=1;strokeWidth=2;" vertex="1" parent="1">
          <mxGeometry x="370" y="290" width="120" height="60" as="geometry" />
        </mxCell>
        <mxCell id="5PEL2_fFzi-qIXHavfcE-12" value="" style="edgeStyle=orthogonalEdgeStyle;rounded=0;orthogonalLoop=1;jettySize=auto;html=1;" edge="1" parent="1" source="5PEL2_fFzi-qIXHavfcE-9" target="5PEL2_fFzi-qIXHavfcE-11">
          <mxGeometry relative="1" as="geometry" />
        </mxCell>
        <mxCell id="5PEL2_fFzi-qIXHavfcE-9" value="输出安全序列" style="whiteSpace=wrap;html=1;strokeWidth=2;" vertex="1" parent="1">
          <mxGeometry x="180" y="390" width="120" height="60" as="geometry" />
        </mxCell>
        <mxCell id="5PEL2_fFzi-qIXHavfcE-14" value="" style="edgeStyle=orthogonalEdgeStyle;rounded=0;orthogonalLoop=1;jettySize=auto;html=1;" edge="1" parent="1" source="5PEL2_fFzi-qIXHavfcE-11" target="5PEL2_fFzi-qIXHavfcE-13">
          <mxGeometry relative="1" as="geometry" />
        </mxCell>
        <mxCell id="5PEL2_fFzi-qIXHavfcE-18" value="satisfy" style="edgeLabel;html=1;align=center;verticalAlign=middle;resizable=0;points=[];" vertex="1" connectable="0" parent="5PEL2_fFzi-qIXHavfcE-14">
          <mxGeometry x="-0.25" relative="1" as="geometry">
            <mxPoint as="offset" />
          </mxGeometry>
        </mxCell>
        <mxCell id="5PEL2_fFzi-qIXHavfcE-20" value="" style="edgeStyle=orthogonalEdgeStyle;rounded=0;orthogonalLoop=1;jettySize=auto;html=1;" edge="1" parent="1" source="5PEL2_fFzi-qIXHavfcE-11" target="5PEL2_fFzi-qIXHavfcE-19">
          <mxGeometry relative="1" as="geometry" />
        </mxCell>
        <mxCell id="5PEL2_fFzi-qIXHavfcE-21" value="unsatisfy" style="edgeLabel;html=1;align=center;verticalAlign=middle;resizable=0;points=[];" vertex="1" connectable="0" parent="5PEL2_fFzi-qIXHavfcE-20">
          <mxGeometry x="-0.15" y="-3" relative="1" as="geometry">
            <mxPoint as="offset" />
          </mxGeometry>
        </mxCell>
        <mxCell id="5PEL2_fFzi-qIXHavfcE-11" value="提出请求require[j]" style="whiteSpace=wrap;html=1;strokeWidth=2;" vertex="1" parent="1">
          <mxGeometry x="180" y="490" width="120" height="60" as="geometry" />
        </mxCell>
        <mxCell id="5PEL2_fFzi-qIXHavfcE-13" value="尝试分配" style="whiteSpace=wrap;html=1;strokeWidth=2;" vertex="1" parent="1">
          <mxGeometry x="180" y="590" width="120" height="60" as="geometry" />
        </mxCell>
        <mxCell id="5PEL2_fFzi-qIXHavfcE-15" value="" style="endArrow=classic;html=1;rounded=0;entryX=0;entryY=0.5;entryDx=0;entryDy=0;" edge="1" parent="1" target="5PEL2_fFzi-qIXHavfcE-13">
          <mxGeometry width="50" height="50" relative="1" as="geometry">
            <mxPoint x="160" y="320" as="sourcePoint" />
            <mxPoint x="80" y="620" as="targetPoint" />
            <Array as="points">
              <mxPoint x="80" y="320" />
              <mxPoint x="80" y="620" />
            </Array>
          </mxGeometry>
        </mxCell>
        <mxCell id="5PEL2_fFzi-qIXHavfcE-19" value="不满足" style="whiteSpace=wrap;html=1;strokeWidth=2;" vertex="1" parent="1">
          <mxGeometry x="380" y="490" width="120" height="60" as="geometry" />
        </mxCell>
      </root>
    </mxGraphModel>
  </diagram>
</mxfile>
